
        <svg height="30px" viewBox="-101 0 511 511.99937" width="30px" xmlns="http://www.w3.org/2000/svg">
            <path
                d="m39.640625 274.601562c.953125-10.46875-3.082031-20.664062-10.527344-28.085937-8.628906-8.605469-13.972656-20.5-13.972656-33.648437v-153.644532c0-11.503906 9.414063-21.273437 20.917969-21.058594 11.15625.210938 20.132812 9.316407 20.132812 20.523438v-18.878906c0-11.335938 9.191406-20.523438 20.527344-20.523438 11.332031 0 20.523438 9.1875 20.523438 20.523438v-18.746094c0-11.503906 9.414062-21.273438 20.914062-21.05859375 11.15625.20703175 20.132812 9.31640575 20.132812 20.51953175v19.285156c0-11.203125 8.980469-20.3125 20.132813-20.519532 11.503906-.21875 20.917969 9.554688 20.917969 21.058594v110.917969s34.113281-35.667969 54.558594-16.558594c8.539062 7.449219 9.425781 20.414063 1.976562 28.957031 0 0-41.082031 57.667969-68.976562 81.980469-8.507813 7.414063-13.035157 18.425781-11.988282 29.664063 5.199219 55.875 21.445313 92.808594 34.828125 114.574218 9.113281 14.828126 2.988281 34.265626-12.996093 41.140626-22.019532 9.476562-52.007813 19.617187-79.5 19.617187-27.496094 0-57.484376-10.140625-79.5-19.617187-15.992188-6.878907-22.113282-26.316407-12.996094-41.144532 13.4375-21.859375 29.765625-59.011718 34.894531-115.277344zm0 0"
                fill="#ff899f"/>
            <g fill="#ff5f7f">
                <path
                    d="m138.292969 145.488281c-4.269531 0-7.726563-3.460937-7.726563-7.726562v-74.34375c0-4.265625 3.457032-7.726563 7.726563-7.726563 4.265625 0 7.726562 3.460938 7.726562 7.726563v74.34375c0 4.265625-3.460937 7.726562-7.726562 7.726562zm0 0"/>
                <path
                    d="m97.242188 145.488281c-4.265626 0-7.726563-3.460937-7.726563-7.726562v-74.34375c0-4.265625 3.460937-7.726563 7.726563-7.726563 4.265624 0 7.726562 3.460938 7.726562 7.726563v74.34375c0 4.265625-3.460938 7.726562-7.726562 7.726562zm0 0"/>
                <path
                    d="m56.191406 145.488281c-4.265625 0-7.726562-3.460937-7.726562-7.726562v-53.632813c0-4.269531 3.460937-7.726562 7.726562-7.726562s7.726563 3.457031 7.726563 7.726562v53.632813c0 4.265625-3.460938 7.726562-7.726563 7.726562zm0 0"/>
                <path
                    d="m39.640625 274.601562c-5.128906 56.265626-21.457031 93.417969-34.890625 115.277344-9.117188 14.828125-2.996094 34.265625 12.992188 41.144532 22.019531 9.476562 52.003906 19.617187 79.5 19.617187 27.496093 0 57.480468-10.140625 79.5-19.617187 15.988281-6.878907 22.113281-26.3125 13-41.140626-13.382813-21.765624-29.628907-58.699218-34.832032-114.574218 0 0-7.078125-69.453125-57.667968-69.453125-50.589844 0-57.601563 68.746093-57.601563 68.746093zm0 0"/>
            </g>
            <path
                d="m176.742188 431.023438c15.988281-6.878907 22.113281-26.3125 12.996093-41.140626-13.378906-21.765624-29.628906-58.699218-34.828125-114.574218 0 0-.855468-8.375-4.085937-19.308594h-53.46875s21.296875 58.761719 3.914062 103.953125c-11.121093 28.910156-21.226562 65.789063-27.070312 88.609375 7.722656 1.308594 15.476562 2.078125 23.042969 2.078125 27.496093 0 57.480468-10.140625 79.5-19.617187zm0 0"
                fill="#f6375d"/>
            <path
                d="m270.269531 335.964844c-.953125-10.472656 3.078125-20.667969 10.523438-28.089844 8.632812-8.605469 13.972656-20.5 13.972656-33.648438v-153.644531c0-11.503906-9.414063-21.273437-20.917969-21.058593-11.152344.210937-20.132812 9.316406-20.132812 20.523437v-18.878906c0-11.335938-9.1875-20.523438-20.523438-20.523438-11.335937 0-20.523437 9.1875-20.523437 20.523438v-18.746094c0-11.503906-9.414063-21.273437-20.917969-21.058594-11.15625.207031-20.132812 9.316407-20.132812 20.519531v19.285157c0-11.203125-8.976563-20.3125-20.132813-20.519531-11.5-.214844-20.917969 9.554687-20.917969 21.058593v110.917969s-34.109375-35.667969-54.554687-16.558594c-8.542969 7.449219-9.425781 20.414063-1.976563 28.957032 0 0 41.078125 57.667968 68.972656 81.980468 8.507813 7.414063 13.039063 18.425782 11.992188 29.664063-5.199219 55.875-21.449219 92.808593-34.828125 114.574219-9.117187 14.828124-2.992187 34.265624 12.996094 41.140624 22.015625 9.476563 52.003906 19.617188 79.496093 19.617188 27.496094 0 57.484376-10.140625 79.5-19.613281 15.992188-6.882813 22.113282-26.320313 12.996094-41.148438-13.4375-21.855469-29.761718-59.007812-34.890625-115.273437zm0 0"
                fill="#ffb3c2"/>
            <path
                d="m171.617188 206.847656c-4.269532 0-7.726563-3.457031-7.726563-7.726562v-74.34375c0-4.265625 3.457031-7.726563 7.726563-7.726563 4.265624 0 7.726562 3.460938 7.726562 7.726563v74.34375c0 4.269531-3.460938 7.726562-7.726562 7.726562zm0 0"
                fill="#ff899f"/>
            <path
                d="m212.664062 206.847656c-4.265624 0-7.722656-3.457031-7.722656-7.726562v-74.34375c0-4.265625 3.457032-7.726563 7.722656-7.726563 4.269532 0 7.726563 3.460938 7.726563 7.726563v74.34375c0 4.269531-3.457031 7.726562-7.726563 7.726562zm0 0"
                fill="#ff899f"/>
            <path
                d="m253.714844 206.847656c-4.265625 0-7.726563-3.457031-7.726563-7.726562v-53.632813c0-4.265625 3.460938-7.726562 7.726563-7.726562 4.269531 0 7.726562 3.460937 7.726562 7.726562v53.632813c0 4.269531-3.457031 7.726562-7.726562 7.726562zm0 0"
                fill="#ff899f"/>
        </svg>

