<svg id="Capa_1" enable-background="new 0 0 512 512" height="512" viewBox="0 0 512 512" width="512" xmlns="http://www.w3.org/2000/svg"><g><path d="m502.997 135.061c-34.896-18.483-52.358-45.678-59.584-59.995-3.18-6.3-8.854-10.89-15.663-12.747l-165.177-45.048c-4.303-1.174-8.842-1.174-13.146 0l-165.177 45.048c-6.809 1.857-12.483 6.446-15.663 12.747-6.958 13.785-23.405 39.509-55.768 57.9l-5.152 15.034c10.791 48.866 62.215 227.624 247.667 342l15.792-.844c180.24-114.451 229.825-287.561 240.491-335.862 1.616-7.32-1.995-14.724-8.62-18.233z" fill="#eceaec"/><path d="m471.19 154.774c-26.757-18.041-43.213-39.833-52.558-55.657-2.18-3.691-5.711-6.318-9.846-7.446l-148.404-40.474c-2.869-.782-5.895-.782-8.764 0l-148.403 40.474c-4.135 1.128-7.667 3.755-9.846 7.446-9.346 15.824-25.803 37.617-52.558 55.657-2.995 2.019-4.436 5.668-3.484 9.152 11.426 41.818 39.632 119.494 103.905 195.132l229.545.003c64.275-75.638 92.472-153.315 103.897-195.135.951-3.484-.49-7.133-3.484-9.152z" fill="#a4ccff"/><path d="m448.413 158.617c-19.211-15.565-32.394-32.426-40.946-45.857-2.179-3.421-5.613-5.837-9.527-6.901l-128.811-35.025c-8.596-2.337-17.661-2.334-26.255.01l-128.929 35.162c-3.911 1.067-7.339 3.481-9.516 6.9-8.486 13.333-21.652 30.162-40.841 45.709-5.229 4.236-7.267 11.287-5.222 17.697 18.874 59.151 68.535 171.934 188.086 256.456 5.683 4.017 13.415 4.018 19.097 0 119.551-84.512 169.212-197.3 188.085-256.455 2.045-6.41.006-13.461-5.221-17.696z" fill="#c3ddff"/><path d="m305.647 337.345-4.953-1.651c-6.801-2.267-11.387-8.631-11.387-15.799v-11.625h-66.615v11.625c0 7.168-4.587 13.532-11.387 15.799l-4.953 1.651.148 25.155 102 4.5z" fill="#f6d190"/><path d="m305.647 337.345c-10.253 16.691-28.622 27.861-49.647 27.861s-39.395-11.17-49.647-27.861l-32.111 10.704-5.242 23.284c28.849 33.952 37.191 36.63 82.319 66.333 2.805 1.847 6.557 1.847 9.363 0 45.133-29.703 57.135-36.049 85.985-70l-8.908-19.617z" fill="#eceaec"/><path d="m256 315.245c11.85 0 23.102-2.513 33.307-6.975v-26.332h-33.307-33.307v26.332c10.205 4.463 21.457 6.975 33.307 6.975z" fill="#ecbd83"/><path d="m204.5 157.035v74.942l51.5 43.69 66.615-43.69v-74.942z" fill="#ffe09f"/><path d="m189.385 157.035v74.942l13.032 7.773 11.949-7.773v-74.942z" fill="#f6d190"/><path d="m289.307 115.401h-58.287c-13.796 0-24.981 11.184-24.981 24.98l8.327 41.634c0-9.198 7.456-16.654 16.654-16.654h49.961c9.198 0 16.654 7.456 16.654 16.654 0 13.796 11.184 24.98 24.981 24.98 4.599 0 8.327-3.728 8.327-8.327v-41.634c-.001-22.993-18.642-41.633-41.636-41.633z" fill="#966a5b"/><path d="m231.019 231.977c-4.603 0-8.327-3.728-8.327-8.327v-8.327c0-4.598 3.724-8.327 8.327-8.327s8.327 3.728 8.327 8.327v8.327c0 4.598-3.724 8.327-8.327 8.327z" fill="#6e4848"/><path d="m280.981 231.977c-4.603 0-8.327-3.728-8.327-8.327v-8.327c0-4.598 3.724-8.327 8.327-8.327s8.327 3.728 8.327 8.327v8.327c-.001 4.598-3.725 8.327-8.327 8.327z" fill="#6e4848"/><path d="m12.819 132.966c-1.302.742-2.48 1.389-3.835 2.106-6.612 3.501-10.214 10.888-8.602 18.194 10.778 48.828 61.389 225.484 246.875 339.882 5.322 3.282 12.173 3.282 17.495 0 2.147-1.324 4.262-2.651 6.373-3.991-210.391-125.659-253.981-332.672-258.306-356.191z" fill="#dad8db"/><path d="m214.366 231.977c-18.866 23.023 4.843 64.773 41.634 64.773 4.297 0 8.5 1.435 12.571.657 30.78-5.878 54.044-32.938 54.044-65.43z" fill="#faf5dc"/><path d="m337.759 348.049c-15.076 29.905-45.982 50.465-81.759 50.465s-66.682-20.559-81.759-50.465l-15.807 5.269-3.101 10.682c28.849 33.952 50.857 52.963 95.985 82.666 2.805 1.847 6.557 1.847 9.363.001 45.133-29.703 66.468-48.382 95.318-82.333l-2.429-11.013z" fill="#dad8db"/><path d="m256 298.592c4.274 0 8.521-.415 12.571-1.184-30.814-5.852-54.205-32.914-54.205-65.431h-24.981c0 36.79 29.825 66.615 66.615 66.615z" fill="#f5ebcd"/><path d="m206.039 140.381c-13.796 0-24.981 11.184-24.981 24.981v33.307c0 4.663 3.863 8.362 8.526 8.326 13.705-.107 24.781-11.25 24.781-24.98v-33.307c.001-4.599-3.727-8.327-8.326-8.327z" fill="#785353"/><path d="m265.55 432.77c-5.682 4.017-13.415 4.017-19.097 0-35.014-24.755-64.012-51.905-88.018-79.451l-17.192 5.731c28.849 33.952 64.948 67.495 110.076 97.198 2.805 1.847 6.557 1.847 9.363.001 45.133-29.703 81.235-63.245 110.084-97.196l-17.195-5.732c-24.006 27.546-53.006 54.695-88.021 79.449z" fill="#c8c5c9"/></g></svg>